<?xml version="1.0" encoding="utf-8"?><svg xmlns="http://www.w3.org/2000/svg" xmlns:xlink="http://www.w3.org/1999/xlink"><symbol viewBox="0 0 32 32" id="book" xmlns="http://www.w3.org/2000/svg"><path d="M28 4v26H7a3 3 0 1 1 0-6h19V0H6C3.8 0 2 1.8 2 4v24c0 2.2 1.8 4 4 4h24V4h-2z"/><path d="M7.002 26H7a1 1 0 0 0 0 2h18.999v-2H7.002z"/></symbol><symbol viewBox="0 0 32 32" id="facebook" xmlns="http://www.w3.org/2000/svg"><path d="M19 6h5V0h-5c-3.86 0-7 3.14-7 7v3H8v6h4v16h6V16h5l1-6h-6V7c0-.542.458-1 1-1z"/></symbol><symbol viewBox="0 0 32 32" id="location" xmlns="http://www.w3.org/2000/svg"><path d="M16 0C10.477 0 6 4.477 6 10c0 10 10 22 10 22s10-12 10-22c0-5.523-4.477-10-10-10zm0 16a6 6 0 1 1 0-12 6 6 0 0 1 0 12z"/></symbol><symbol viewBox="0 0 32 32" id="mail2" xmlns="http://www.w3.org/2000/svg"><path d="M26.667 0H5.334C2.4 0 0 2.4 0 5.334v21.332C0 29.602 2.4 32 5.334 32h21.333C29.601 32 32 29.602 32 26.666V5.334C32 2.4 29.601 0 26.667 0zm0 4c.25 0 .486.073.688.198L16 13.586 4.645 4.199c.202-.125.439-.198.689-.198h21.333zM5.334 28a1.32 1.32 0 0 1-.178-.013l7.051-9.78-.914-.914L4 24.586V5.488L16 20 28 5.488v19.098l-7.293-7.293-.914.914 7.051 9.78a1.294 1.294 0 0 1-.177.013H5.334z"/></symbol><symbol viewBox="0 0 32 32" id="menu" xmlns="http://www.w3.org/2000/svg"><path d="M2 6h28v6H2zm0 8h28v6H2zm0 8h28v6H2z"/></symbol><symbol viewBox="0 0 32 32" id="office" xmlns="http://www.w3.org/2000/svg"><path d="M0 32h16V0H0v32zM10 4h4v4h-4V4zm0 8h4v4h-4v-4zm0 8h4v4h-4v-4zM2 4h4v4H2V4zm0 8h4v4H2v-4zm0 8h4v4H2v-4zm16-10h14v2H18zm0 22h4v-8h6v8h4V14H18z"/></symbol><symbol viewBox="0 0 32 32" id="pencil" xmlns="http://www.w3.org/2000/svg"><path d="M27 0a5 5 0 0 1 4 8l-2 2-7-7 2-2c.836-.628 1.874-1 3-1zM2 23l-2 9 9-2 18.5-18.5-7-7L2 23zm20.362-11.638l-14 14-1.724-1.724 14-14 1.724 1.724z"/></symbol><symbol viewBox="0 0 32 32" id="tumblr" xmlns="http://www.w3.org/2000/svg"><path d="M18.001 14v7.318c0 1.857-.024 2.927.173 3.453.195.524.685 1.067 1.218 1.381.709.425 1.517.637 2.428.637 1.62 0 2.577-.214 4.179-1.267v4.811a18.187 18.187 0 0 1-3.666 1.279 15.852 15.852 0 0 1-3.596.388c-1.463 0-2.327-.184-3.45-.552-1.124-.371-2.083-.9-2.876-1.579-.795-.685-1.344-1.413-1.652-2.182s-.46-1.888-.46-3.351V13.114H6.004V8.583C7.26 8.175 8.665 7.59 9.56 6.828a8.757 8.757 0 0 0 2.16-2.748c.543-1.067.917-2.429 1.121-4.079H18v8h7.999v6H18z"/></symbol><symbol viewBox="0 0 32 32" id="user" xmlns="http://www.w3.org/2000/svg"><path d="M18 22.082v-1.649c2.203-1.241 4-4.337 4-7.432 0-4.971 0-9-6-9s-6 4.029-6 9c0 3.096 1.797 6.191 4 7.432v1.649C7.216 22.637 2 25.97 2 30h28c0-4.03-5.216-7.364-12-7.918z"/></symbol></svg>